# xmcd
#
# Track frame offsets: 
#        150
#        21607
#        37357
#        70732
#        94432
#        109657
#        136357
#        162232
#        206182
#        231682
#        274057
#        291907
#        308632
#        326632
#
# Disc length: 4591 seconds
#
# Revision: 0
# Processed by: cddbd v1.5.2PL0 Copyright (c) Steve Scherf et al.
# Submitted via: ExactAudioCopy v0.99pb5
#
DISCID=e311ed0e
DTITLE=Blue Largo - Still In Love With You
DYEAR=2002
DGENRE=Blues
TTITLE0=Feel Like Cryin' Again
TTITLE1=Come On Over To My House
TTITLE2=I'm Still In Love With You
TTITLE3=Sugar Baby
TTITLE4=Rose Room
TTITLE5=I'm Gonna Let 'em Ride
TTITLE6=Lover Man
TTITLE7=Hastings Street Bounce
TTITLE8=I've Got You Under My Skin
TTITLE9=Baby Get Lost
TTITLE10=No Denyin'
TTITLE11=Besame Mucho
TTITLE12=Ain't Gonna Compromise
TTITLE13=How Deep Is The Ocean
EXTD=
EXTT0=
EXTT1=
EXTT2=
EXTT3=
EXTT4=
EXTT5=
EXTT6=
EXTT7=
EXTT8=
EXTT9=
EXTT10=
EXTT11=
EXTT12=
EXTT13=
PLAYORDER=
